<svg xmlns="http://www.w3.org/2000/svg" viewBox="0 0 280 80" fill="none">
  <!-- EA Emblem in vibrant green -->
  <g id="ea-emblem">
    <!-- E Letter -->
    <path d="M12 16 H44 V26 H24 V34 H40 V44 H24 V54 H44 V64 H12 Z" fill="#22c55e" />
    
    <!-- Sprouting Leaves on E -->
    <!-- Main curved stem -->
    <path d="M12 40 C6 38 2 34 2 26 C2 24 3 22 5 21 C6 24 9 27 15 28" stroke="#22c55e" stroke-width="3" stroke-linecap="round" fill="none" />
    <!-- Sprout leaf 1 (left) -->
    <path d="M2 30 C-2 26 0 19 6 18 C7 23 5 28 2 30 Z" fill="#22c55e" />
    <!-- Sprout leaf 2 (upper curve into E) -->
    <path d="M8 22 C9 15 16 14 20 18 C17 21 11 23 8 22 Z" fill="#22c55e" />
    
    <!-- A Letter with leaf inside counter -->
    <!-- Outer A shape -->
    <path d="M46 64 L65 16 H77 L96 64 H83 L79 53 H63 L59 64 H46 Z" fill="#22c55e" />
    <!-- Leaf cutout in A -->
    <path d="M71 28 C66 36 65 44 65 48 H77 C77 44 76 36 71 28 Z" fill="#06120e" />
    <!-- Leaf silhouette inside counter -->
    <path d="M71 29 C67 36 67 43 67 46 H75 C75 43 75 36 71 29 Z" fill="#22c55e" />
    <!-- Central leaf vein -->
    <path d="M71 31 V46" stroke="#06120e" stroke-width="1.2" stroke-linecap="round" />
  </g>

  <!-- Typography: Ecoapo & Tecnología Solar -->
  <g id="brand-text">
    <text x="108" y="42" font-family="'Plus Jakarta Sans', system-ui, -apple-system, sans-serif" font-size="34" font-weight="800" fill="#ffffff" letter-spacing="-0.5">Ecoapo</text>
    <text x="110" y="62" font-family="'Plus Jakarta Sans', system-ui, -apple-system, sans-serif" font-size="14" font-weight="600" fill="#84cc16" letter-spacing="0.8">Tecnología Solar</text>
  </g>
</svg>
